<svg width="84" height="72" viewBox="0 0 84 72" fill="none" xmlns="http://www.w3.org/2000/svg">
<g clip-path="url(#clip0)">
<path d="M46.2733 43.361C45.3706 43.0372 44.3998 42.876 43.4214 42.8871C40.8896 42.8871 38.8369 43.8633 38.8369 45.0672C38.8369 46.2711 40.8896 47.2466 43.4214 47.2466C44.3998 47.2575 45.3704 47.0965 46.2733 46.7735C46.6997 46.6113 46.9742 46.2487 46.9736 45.849V44.285C46.9748 43.8851 46.6999 43.5227 46.2733 43.361Z" fill="#D5D6DB"/>
<path d="M51.7813 26.6492C51.1267 26.4146 50.4227 26.2977 49.7131 26.3058C47.8777 26.3058 46.3888 27.0133 46.3888 27.8856C46.3888 28.7579 47.8779 29.4654 49.7131 29.4654C50.4227 29.4731 51.1265 29.3561 51.7813 29.122C52.0902 29.0043 52.2891 28.7416 52.2887 28.4518V27.3193C52.2897 27.0295 52.0906 26.7666 51.7813 26.6492Z" fill="#D5D6DB"/>
<path d="M43.7891 22.6199C43.6689 22.5255 43.5118 22.4733 43.3486 22.4735H39.0475C38.688 22.473 38.396 22.7223 38.3954 23.0306C38.3952 23.1012 38.4107 23.1713 38.4411 23.2368L43.0672 33.2977H57.4094L43.7891 22.6199Z" fill="#08303C"/>
<path d="M78.1835 41.7248H37.6234L16.0135 37.7037L6.03937 33.8897V31.6214L73.2955 32.2134C75.3022 32.2272 77.2692 32.6947 78.9976 33.5688C79.7522 33.9554 80.4472 34.4217 81.0667 34.9566C81.6188 35.4261 82.0895 35.9608 82.4647 36.5448C82.8808 37.2009 83.9798 37.9326 84.0002 38.735C84.002 38.7348 83.287 41.9135 78.1835 41.7248Z" fill="#E1E6E9"/>
<path d="M39.1067 38.4371L14.7427 50.3562C14.42 50.5359 14.3287 50.9057 14.5383 51.1821C14.667 51.3517 14.887 51.4539 15.1229 51.4537H19.5231C20.3696 51.4536 21.2072 51.305 21.9842 51.0172L63.2495 37.9812L39.1067 38.4371Z" fill="#08303C"/>
<path d="M7.25386 20.8562C7.09168 20.6616 6.82967 20.5461 6.5506 20.5461H3.04663C2.56928 20.5459 2.18215 20.8774 2.18176 21.2866C2.18176 21.3644 2.19588 21.4417 2.22393 21.5157L6.03913 31.6216L16.3073 31.7122L7.25386 20.8562Z" fill="#08303C"/>
<path d="M7.42349 33.2993L0.121963 36.3327C0.0158657 36.3755 -0.0296327 36.4841 0.0203764 36.5751C0.0564614 36.6406 0.134515 36.6816 0.21904 36.6795H3.6279C3.65437 36.6795 3.68085 36.6753 3.70556 36.667L13.7407 33.302L7.42349 33.2993Z" fill="#08303C"/>
<path d="M81.0684 34.9564C80.4491 34.4216 79.7539 33.9554 78.9992 33.5686C77.7306 34.0911 76.6439 34.8895 75.8475 35.8843C75.7067 36.0961 75.7928 36.3658 76.0399 36.4866C76.1168 36.5241 76.2034 36.5441 76.2919 36.5446H82.4664C82.0912 35.9607 81.6205 35.4259 81.0684 34.9564Z" fill="#08303C"/>
<path d="M67.7612 34.0353H71.5734V40.0145H67.7612V34.0353Z" fill="#D5D6DB"/>
<path d="M64.4997 34.7653C64.0354 34.7653 63.6586 35.0881 63.6586 35.4863V36.1315C63.6743 36.5293 64.0634 36.841 64.5278 36.8275C64.9698 36.8146 65.3248 36.5105 65.3399 36.1315V35.4863C65.3399 35.0884 64.9639 34.7657 64.4997 34.7653Z" fill="#3A556A"/>
<path d="M60.7099 34.7653C60.2455 34.7653 59.8687 35.0881 59.8687 35.4863V36.1315C59.8844 36.5293 60.2735 36.841 60.7379 36.8275C61.1799 36.8146 61.5349 36.5105 61.55 36.1315V35.4863C61.5498 35.0884 61.1739 34.7657 60.7099 34.7653Z" fill="#3A556A"/>
<path d="M56.9188 34.7653C56.4546 34.7658 56.0786 35.0884 56.0786 35.4863V36.1315C56.0943 36.5293 56.4834 36.841 56.9478 36.8275C57.3898 36.8146 57.7448 36.5105 57.7599 36.1315V35.4863C57.7599 35.0881 57.3834 34.7653 56.9188 34.7653Z" fill="#3A556A"/>
<path d="M53.1289 34.7653C52.6647 34.7658 52.2888 35.0884 52.2888 35.4863V36.1315C52.3044 36.5293 52.6935 36.841 53.1579 36.8275C53.6 36.8146 53.9549 36.5105 53.97 36.1315V35.4863C53.9698 35.0881 53.5933 34.7653 53.1289 34.7653Z" fill="#3A556A"/>
<path d="M49.3388 34.7653C48.8746 34.7658 48.4986 35.0884 48.4986 35.4863V36.1314C48.4986 36.5292 48.8747 36.8516 49.3388 36.8516C49.8028 36.8516 50.1789 36.5292 50.1789 36.1314V35.4863C50.1795 35.0886 49.8038 34.7658 49.3397 34.7653C49.3393 34.7653 49.3392 34.7653 49.3388 34.7653Z" fill="#3A556A"/>
<path d="M45.5489 34.7653C45.0847 34.7658 44.7087 35.0884 44.7087 35.4863V36.1314C44.7087 36.5292 45.0849 36.8516 45.5489 36.8516C46.0129 36.8516 46.389 36.5292 46.389 36.1314V35.4863C46.3896 35.0886 46.0139 34.7658 45.5499 34.7653C45.5495 34.7653 45.5491 34.7653 45.5489 34.7653Z" fill="#3A556A"/>
<path d="M41.7588 34.7653C41.2946 34.7658 40.9186 35.0884 40.9186 35.4863V36.1315C40.9192 36.5292 41.296 36.8511 41.7598 36.8506C42.2228 36.8501 42.5982 36.5283 42.5988 36.1315V35.4863C42.599 35.0884 42.223 34.7657 41.7588 34.7653Z" fill="#3A556A"/>
<path d="M37.9687 34.7653C37.5045 34.7658 37.1285 35.0884 37.1285 35.4863V36.1315C37.1291 36.5292 37.5059 36.8511 37.9697 36.8506C38.4327 36.8501 38.8081 36.5283 38.8086 36.1315V35.4863C38.8088 35.0884 38.4329 34.7657 37.9687 34.7653Z" fill="#3A556A"/>
<path d="M34.1788 34.7653C33.7146 34.7658 33.3386 35.0884 33.3386 35.4863V36.1315C33.3392 36.5292 33.7159 36.8511 34.1798 36.8506C34.6428 36.8501 35.0181 36.5283 35.0187 36.1315V35.4863C35.0187 35.0884 34.6428 34.7657 34.1788 34.7653Z" fill="#3A556A"/>
<path d="M30.3877 34.7653C29.9237 34.7653 29.5475 35.0877 29.5475 35.4855V35.4863V36.1315C29.5481 36.5292 29.9249 36.8511 30.3887 36.8506C30.8517 36.8501 31.2271 36.5283 31.2277 36.1315V35.4863C31.2279 35.0884 30.8519 34.7657 30.3877 34.7653Z" fill="#3A556A"/>
<path d="M26.5988 34.7653C26.1348 34.7653 25.7586 35.0877 25.7586 35.4855V35.4863V36.1315C25.7592 36.5292 26.1359 36.8511 26.5997 36.8506C27.0628 36.8501 27.4381 36.5283 27.4387 36.1315V35.4863C27.4387 35.0884 27.0628 34.7657 26.5988 34.7653Z" fill="#3A556A"/>
</g>
<defs>
<clipPath id="clip0">
<rect width="84" height="72" rx="20" fill="white"/>
</clipPath>
</defs>
</svg>
